<mxfile modified="2023-12-30T08:38:59.465Z" host="app.diagrams.net" agent="Mozilla/5.0 (Windows NT 10.0; Win64; x64) AppleWebKit/537.36 (KHTML, like Gecko) Chrome/120.0.0.0 Safari/537.36" etag="30nnrmsH_USKVx1t3f86" version="22.1.15" type="github">
  <diagram id="Ht1M8jgEwFfnCIfOTk4-" name="Page-1">
    <mxGraphModel dx="1434" dy="1573" grid="1" gridSize="10" guides="1" tooltips="1" connect="1" arrows="1" fold="1" page="1" pageScale="1" pageWidth="1169" pageHeight="827" math="0" shadow="0">
      <root>
        <mxCell id="0" />
        <mxCell id="1" parent="0" />
        <mxCell id="SSHrPmbD5YyF9d5csQY0-1" value="asia-seoul(ap-northeast-2)" style="points=[[0,0],[0.25,0],[0.5,0],[0.75,0],[1,0],[1,0.25],[1,0.5],[1,0.75],[1,1],[0.75,1],[0.5,1],[0.25,1],[0,1],[0,0.75],[0,0.5],[0,0.25]];outlineConnect=0;gradientColor=none;html=1;whiteSpace=wrap;fontSize=12;fontStyle=0;container=1;pointerEvents=0;collapsible=0;recursiveResize=0;shape=mxgraph.aws4.group;grIcon=mxgraph.aws4.group_region;strokeColor=#00A4A6;fillColor=none;verticalAlign=top;align=left;spacingLeft=30;fontColor=#147EBA;dashed=1;" vertex="1" parent="1">
          <mxGeometry x="70" y="-810" width="1140" height="720" as="geometry" />
        </mxCell>
        <mxCell id="SSHrPmbD5YyF9d5csQY0-2" value="&lt;font color=&quot;#000000&quot;&gt;VPC(10.0.0.0/16)&lt;/font&gt;" style="points=[[0,0],[0.25,0],[0.5,0],[0.75,0],[1,0],[1,0.25],[1,0.5],[1,0.75],[1,1],[0.75,1],[0.5,1],[0.25,1],[0,1],[0,0.75],[0,0.5],[0,0.25]];outlineConnect=0;gradientColor=none;html=1;whiteSpace=wrap;fontSize=12;fontStyle=0;container=1;pointerEvents=0;collapsible=0;recursiveResize=0;shape=mxgraph.aws4.group;grIcon=mxgraph.aws4.group_vpc2;strokeColor=#8C4FFF;fillColor=none;verticalAlign=top;align=left;spacingLeft=30;fontColor=#AAB7B8;dashed=0;" vertex="1" parent="SSHrPmbD5YyF9d5csQY0-1">
          <mxGeometry x="149" y="40" width="950" height="630" as="geometry" />
        </mxCell>
        <mxCell id="SSHrPmbD5YyF9d5csQY0-10" value="Availability Zone(ap-northeast-2a)" style="fillColor=none;strokeColor=#147EBA;dashed=1;verticalAlign=top;fontStyle=0;fontColor=#147EBA;whiteSpace=wrap;html=1;" vertex="1" parent="SSHrPmbD5YyF9d5csQY0-2">
          <mxGeometry x="30" y="40" width="890" height="230" as="geometry" />
        </mxCell>
        <mxCell id="SSHrPmbD5YyF9d5csQY0-11" value="Availability Zone(ap-northeast-2b)" style="fillColor=none;strokeColor=#147EBA;dashed=1;verticalAlign=top;fontStyle=0;fontColor=#147EBA;whiteSpace=wrap;html=1;" vertex="1" parent="SSHrPmbD5YyF9d5csQY0-2">
          <mxGeometry x="30" y="367" width="890" height="230" as="geometry" />
        </mxCell>
        <mxCell id="SSHrPmbD5YyF9d5csQY0-13" value="Public subnet&lt;br&gt;10.0.5.0/24" style="points=[[0,0],[0.25,0],[0.5,0],[0.75,0],[1,0],[1,0.25],[1,0.5],[1,0.75],[1,1],[0.75,1],[0.5,1],[0.25,1],[0,1],[0,0.75],[0,0.5],[0,0.25]];outlineConnect=0;gradientColor=none;html=1;whiteSpace=wrap;fontSize=12;fontStyle=0;container=1;pointerEvents=0;collapsible=0;recursiveResize=0;shape=mxgraph.aws4.group;grIcon=mxgraph.aws4.group_security_group;grStroke=0;strokeColor=#7AA116;fillColor=#F2F6E8;verticalAlign=top;align=left;spacingLeft=30;fontColor=#248814;dashed=0;" vertex="1" parent="SSHrPmbD5YyF9d5csQY0-2">
          <mxGeometry x="50" y="70" width="180" height="180" as="geometry" />
        </mxCell>
        <mxCell id="SSHrPmbD5YyF9d5csQY0-19" value="Bastion Host" style="sketch=0;points=[[0,0,0],[0.25,0,0],[0.5,0,0],[0.75,0,0],[1,0,0],[0,1,0],[0.25,1,0],[0.5,1,0],[0.75,1,0],[1,1,0],[0,0.25,0],[0,0.5,0],[0,0.75,0],[1,0.25,0],[1,0.5,0],[1,0.75,0]];outlineConnect=0;fontColor=#232F3E;fillColor=#ED7100;strokeColor=#ffffff;dashed=0;verticalLabelPosition=bottom;verticalAlign=top;align=center;html=1;fontSize=12;fontStyle=0;aspect=fixed;shape=mxgraph.aws4.resourceIcon;resIcon=mxgraph.aws4.ec2;" vertex="1" parent="SSHrPmbD5YyF9d5csQY0-13">
          <mxGeometry x="110" y="71" width="38" height="38" as="geometry" />
        </mxCell>
        <mxCell id="SSHrPmbD5YyF9d5csQY0-20" value="NAT Gateways" style="sketch=0;outlineConnect=0;fontColor=#232F3E;gradientColor=none;fillColor=#8C4FFF;strokeColor=none;dashed=0;verticalLabelPosition=bottom;verticalAlign=top;align=center;html=1;fontSize=12;fontStyle=0;aspect=fixed;pointerEvents=1;shape=mxgraph.aws4.nat_gateway;" vertex="1" parent="SSHrPmbD5YyF9d5csQY0-13">
          <mxGeometry x="30" y="71" width="38" height="38" as="geometry" />
        </mxCell>
        <mxCell id="SSHrPmbD5YyF9d5csQY0-16" value="Public subnet&lt;br&gt;10.0.10.0/24" style="points=[[0,0],[0.25,0],[0.5,0],[0.75,0],[1,0],[1,0.25],[1,0.5],[1,0.75],[1,1],[0.75,1],[0.5,1],[0.25,1],[0,1],[0,0.75],[0,0.5],[0,0.25]];outlineConnect=0;gradientColor=none;html=1;whiteSpace=wrap;fontSize=12;fontStyle=0;container=1;pointerEvents=0;collapsible=0;recursiveResize=0;shape=mxgraph.aws4.group;grIcon=mxgraph.aws4.group_security_group;grStroke=0;strokeColor=#7AA116;fillColor=#F2F6E8;verticalAlign=top;align=left;spacingLeft=30;fontColor=#248814;dashed=0;" vertex="1" parent="SSHrPmbD5YyF9d5csQY0-2">
          <mxGeometry x="50" y="397" width="180" height="180" as="geometry" />
        </mxCell>
        <mxCell id="SSHrPmbD5YyF9d5csQY0-17" value="Private subnet&lt;br&gt;10.0.6.0/24" style="points=[[0,0],[0.25,0],[0.5,0],[0.75,0],[1,0],[1,0.25],[1,0.5],[1,0.75],[1,1],[0.75,1],[0.5,1],[0.25,1],[0,1],[0,0.75],[0,0.5],[0,0.25]];outlineConnect=0;gradientColor=none;html=1;whiteSpace=wrap;fontSize=12;fontStyle=0;container=1;pointerEvents=0;collapsible=0;recursiveResize=0;shape=mxgraph.aws4.group;grIcon=mxgraph.aws4.group_security_group;grStroke=0;strokeColor=#00A4A6;fillColor=#E6F6F7;verticalAlign=top;align=left;spacingLeft=30;fontColor=#147EBA;dashed=0;" vertex="1" parent="SSHrPmbD5YyF9d5csQY0-2">
          <mxGeometry x="265" y="70" width="180" height="180" as="geometry" />
        </mxCell>
        <mxCell id="SSHrPmbD5YyF9d5csQY0-26" value="Web-Server-01" style="sketch=0;points=[[0,0,0],[0.25,0,0],[0.5,0,0],[0.75,0,0],[1,0,0],[0,1,0],[0.25,1,0],[0.5,1,0],[0.75,1,0],[1,1,0],[0,0.25,0],[0,0.5,0],[0,0.75,0],[1,0.25,0],[1,0.5,0],[1,0.75,0]];outlineConnect=0;fontColor=#232F3E;fillColor=#ED7100;strokeColor=#ffffff;dashed=0;verticalLabelPosition=bottom;verticalAlign=top;align=center;html=1;fontSize=12;fontStyle=0;aspect=fixed;shape=mxgraph.aws4.resourceIcon;resIcon=mxgraph.aws4.ec2;" vertex="1" parent="SSHrPmbD5YyF9d5csQY0-17">
          <mxGeometry x="71" y="66" width="38" height="38" as="geometry" />
        </mxCell>
        <mxCell id="SSHrPmbD5YyF9d5csQY0-18" value="Private subnet&lt;br&gt;10.0.11.0/24" style="points=[[0,0],[0.25,0],[0.5,0],[0.75,0],[1,0],[1,0.25],[1,0.5],[1,0.75],[1,1],[0.75,1],[0.5,1],[0.25,1],[0,1],[0,0.75],[0,0.5],[0,0.25]];outlineConnect=0;gradientColor=none;html=1;whiteSpace=wrap;fontSize=12;fontStyle=0;container=1;pointerEvents=0;collapsible=0;recursiveResize=0;shape=mxgraph.aws4.group;grIcon=mxgraph.aws4.group_security_group;grStroke=0;strokeColor=#00A4A6;fillColor=#E6F6F7;verticalAlign=top;align=left;spacingLeft=30;fontColor=#147EBA;dashed=0;" vertex="1" parent="SSHrPmbD5YyF9d5csQY0-2">
          <mxGeometry x="265" y="397" width="180" height="180" as="geometry" />
        </mxCell>
        <mxCell id="SSHrPmbD5YyF9d5csQY0-28" value="Web-Server-02" style="sketch=0;points=[[0,0,0],[0.25,0,0],[0.5,0,0],[0.75,0,0],[1,0,0],[0,1,0],[0.25,1,0],[0.5,1,0],[0.75,1,0],[1,1,0],[0,0.25,0],[0,0.5,0],[0,0.75,0],[1,0.25,0],[1,0.5,0],[1,0.75,0]];outlineConnect=0;fontColor=#232F3E;fillColor=#ED7100;strokeColor=#ffffff;dashed=0;verticalLabelPosition=bottom;verticalAlign=top;align=center;html=1;fontSize=12;fontStyle=0;aspect=fixed;shape=mxgraph.aws4.resourceIcon;resIcon=mxgraph.aws4.ec2;" vertex="1" parent="SSHrPmbD5YyF9d5csQY0-18">
          <mxGeometry x="71" y="71" width="38" height="38" as="geometry" />
        </mxCell>
        <mxCell id="SSHrPmbD5YyF9d5csQY0-22" value="Private subnet&lt;br&gt;10.0.7.0/24" style="points=[[0,0],[0.25,0],[0.5,0],[0.75,0],[1,0],[1,0.25],[1,0.5],[1,0.75],[1,1],[0.75,1],[0.5,1],[0.25,1],[0,1],[0,0.75],[0,0.5],[0,0.25]];outlineConnect=0;gradientColor=none;html=1;whiteSpace=wrap;fontSize=12;fontStyle=0;container=1;pointerEvents=0;collapsible=0;recursiveResize=0;shape=mxgraph.aws4.group;grIcon=mxgraph.aws4.group_security_group;grStroke=0;strokeColor=#00A4A6;fillColor=#E6F6F7;verticalAlign=top;align=left;spacingLeft=30;fontColor=#147EBA;dashed=0;" vertex="1" parent="SSHrPmbD5YyF9d5csQY0-2">
          <mxGeometry x="487" y="70" width="180" height="180" as="geometry" />
        </mxCell>
        <mxCell id="SSHrPmbD5YyF9d5csQY0-27" value="Was-Server-01" style="sketch=0;points=[[0,0,0],[0.25,0,0],[0.5,0,0],[0.75,0,0],[1,0,0],[0,1,0],[0.25,1,0],[0.5,1,0],[0.75,1,0],[1,1,0],[0,0.25,0],[0,0.5,0],[0,0.75,0],[1,0.25,0],[1,0.5,0],[1,0.75,0]];outlineConnect=0;fontColor=#232F3E;fillColor=#ED7100;strokeColor=#ffffff;dashed=0;verticalLabelPosition=bottom;verticalAlign=top;align=center;html=1;fontSize=12;fontStyle=0;aspect=fixed;shape=mxgraph.aws4.resourceIcon;resIcon=mxgraph.aws4.ec2;" vertex="1" parent="SSHrPmbD5YyF9d5csQY0-22">
          <mxGeometry x="71" y="66" width="38" height="38" as="geometry" />
        </mxCell>
        <mxCell id="SSHrPmbD5YyF9d5csQY0-23" value="Private subnet&lt;br&gt;10.0.12.0/24" style="points=[[0,0],[0.25,0],[0.5,0],[0.75,0],[1,0],[1,0.25],[1,0.5],[1,0.75],[1,1],[0.75,1],[0.5,1],[0.25,1],[0,1],[0,0.75],[0,0.5],[0,0.25]];outlineConnect=0;gradientColor=none;html=1;whiteSpace=wrap;fontSize=12;fontStyle=0;container=1;pointerEvents=0;collapsible=0;recursiveResize=0;shape=mxgraph.aws4.group;grIcon=mxgraph.aws4.group_security_group;grStroke=0;strokeColor=#00A4A6;fillColor=#E6F6F7;verticalAlign=top;align=left;spacingLeft=30;fontColor=#147EBA;dashed=0;" vertex="1" parent="SSHrPmbD5YyF9d5csQY0-2">
          <mxGeometry x="487" y="397" width="180" height="180" as="geometry" />
        </mxCell>
        <mxCell id="SSHrPmbD5YyF9d5csQY0-29" value="Was-Server-02" style="sketch=0;points=[[0,0,0],[0.25,0,0],[0.5,0,0],[0.75,0,0],[1,0,0],[0,1,0],[0.25,1,0],[0.5,1,0],[0.75,1,0],[1,1,0],[0,0.25,0],[0,0.5,0],[0,0.75,0],[1,0.25,0],[1,0.5,0],[1,0.75,0]];outlineConnect=0;fontColor=#232F3E;fillColor=#ED7100;strokeColor=#ffffff;dashed=0;verticalLabelPosition=bottom;verticalAlign=top;align=center;html=1;fontSize=12;fontStyle=0;aspect=fixed;shape=mxgraph.aws4.resourceIcon;resIcon=mxgraph.aws4.ec2;" vertex="1" parent="SSHrPmbD5YyF9d5csQY0-23">
          <mxGeometry x="71" y="71" width="38" height="38" as="geometry" />
        </mxCell>
        <mxCell id="SSHrPmbD5YyF9d5csQY0-24" value="Private subnet&lt;br&gt;10.0.8.0/24" style="points=[[0,0],[0.25,0],[0.5,0],[0.75,0],[1,0],[1,0.25],[1,0.5],[1,0.75],[1,1],[0.75,1],[0.5,1],[0.25,1],[0,1],[0,0.75],[0,0.5],[0,0.25]];outlineConnect=0;gradientColor=none;html=1;whiteSpace=wrap;fontSize=12;fontStyle=0;container=1;pointerEvents=0;collapsible=0;recursiveResize=0;shape=mxgraph.aws4.group;grIcon=mxgraph.aws4.group_security_group;grStroke=0;strokeColor=#00A4A6;fillColor=#E6F6F7;verticalAlign=top;align=left;spacingLeft=30;fontColor=#147EBA;dashed=0;" vertex="1" parent="SSHrPmbD5YyF9d5csQY0-2">
          <mxGeometry x="709" y="70" width="180" height="180" as="geometry" />
        </mxCell>
        <mxCell id="SSHrPmbD5YyF9d5csQY0-32" value="MariaDB(Active)" style="sketch=0;outlineConnect=0;fontColor=#232F3E;gradientColor=none;fillColor=#C925D1;strokeColor=none;dashed=0;verticalLabelPosition=bottom;verticalAlign=top;align=center;html=1;fontSize=12;fontStyle=0;aspect=fixed;pointerEvents=1;shape=mxgraph.aws4.rds_instance;" vertex="1" parent="SSHrPmbD5YyF9d5csQY0-24">
          <mxGeometry x="70" y="65" width="40" height="40" as="geometry" />
        </mxCell>
        <mxCell id="SSHrPmbD5YyF9d5csQY0-25" value="Private subnet&lt;br&gt;10.0.13.0/24" style="points=[[0,0],[0.25,0],[0.5,0],[0.75,0],[1,0],[1,0.25],[1,0.5],[1,0.75],[1,1],[0.75,1],[0.5,1],[0.25,1],[0,1],[0,0.75],[0,0.5],[0,0.25]];outlineConnect=0;gradientColor=none;html=1;whiteSpace=wrap;fontSize=12;fontStyle=0;container=1;pointerEvents=0;collapsible=0;recursiveResize=0;shape=mxgraph.aws4.group;grIcon=mxgraph.aws4.group_security_group;grStroke=0;strokeColor=#00A4A6;fillColor=#E6F6F7;verticalAlign=top;align=left;spacingLeft=30;fontColor=#147EBA;dashed=0;" vertex="1" parent="SSHrPmbD5YyF9d5csQY0-2">
          <mxGeometry x="709" y="397" width="180" height="180" as="geometry" />
        </mxCell>
        <mxCell id="SSHrPmbD5YyF9d5csQY0-33" value="MariaDB(StandBy)" style="sketch=0;outlineConnect=0;fontColor=#232F3E;gradientColor=none;fillColor=#C925D1;strokeColor=none;dashed=0;verticalLabelPosition=bottom;verticalAlign=top;align=center;html=1;fontSize=12;fontStyle=0;aspect=fixed;pointerEvents=1;shape=mxgraph.aws4.rds_instance;" vertex="1" parent="SSHrPmbD5YyF9d5csQY0-25">
          <mxGeometry x="70" y="70" width="40" height="40" as="geometry" />
        </mxCell>
        <mxCell id="SSHrPmbD5YyF9d5csQY0-41" value="" style="edgeStyle=orthogonalEdgeStyle;html=1;endArrow=block;elbow=vertical;startArrow=block;startFill=1;endFill=1;strokeColor=#545B64;rounded=0;" edge="1" parent="SSHrPmbD5YyF9d5csQY0-2" source="SSHrPmbD5YyF9d5csQY0-32" target="SSHrPmbD5YyF9d5csQY0-33">
          <mxGeometry width="100" relative="1" as="geometry">
            <mxPoint x="781" y="180" as="sourcePoint" />
            <mxPoint x="881" y="180" as="targetPoint" />
          </mxGeometry>
        </mxCell>
        <mxCell id="SSHrPmbD5YyF9d5csQY0-42" value="EX-ELB" style="sketch=0;points=[[0,0,0],[0.25,0,0],[0.5,0,0],[0.75,0,0],[1,0,0],[0,1,0],[0.25,1,0],[0.5,1,0],[0.75,1,0],[1,1,0],[0,0.25,0],[0,0.5,0],[0,0.75,0],[1,0.25,0],[1,0.5,0],[1,0.75,0]];outlineConnect=0;fontColor=#232F3E;fillColor=#8C4FFF;strokeColor=#ffffff;dashed=0;verticalLabelPosition=bottom;verticalAlign=top;align=center;html=1;fontSize=12;fontStyle=0;aspect=fixed;shape=mxgraph.aws4.resourceIcon;resIcon=mxgraph.aws4.elastic_load_balancing;" vertex="1" parent="SSHrPmbD5YyF9d5csQY0-2">
          <mxGeometry x="221" y="295.5" width="39" height="39" as="geometry" />
        </mxCell>
        <mxCell id="SSHrPmbD5YyF9d5csQY0-43" value="IN-ELB" style="sketch=0;points=[[0,0,0],[0.25,0,0],[0.5,0,0],[0.75,0,0],[1,0,0],[0,1,0],[0.25,1,0],[0.5,1,0],[0.75,1,0],[1,1,0],[0,0.25,0],[0,0.5,0],[0,0.75,0],[1,0.25,0],[1,0.5,0],[1,0.75,0]];outlineConnect=0;fontColor=#232F3E;fillColor=#8C4FFF;strokeColor=#ffffff;dashed=0;verticalLabelPosition=bottom;verticalAlign=top;align=center;html=1;fontSize=12;fontStyle=0;aspect=fixed;shape=mxgraph.aws4.resourceIcon;resIcon=mxgraph.aws4.elastic_load_balancing;" vertex="1" parent="SSHrPmbD5YyF9d5csQY0-2">
          <mxGeometry x="442" y="295.5" width="39" height="39" as="geometry" />
        </mxCell>
        <mxCell id="SSHrPmbD5YyF9d5csQY0-48" style="edgeStyle=orthogonalEdgeStyle;rounded=0;orthogonalLoop=1;jettySize=auto;html=1;entryX=0;entryY=0.5;entryDx=0;entryDy=0;entryPerimeter=0;" edge="1" parent="SSHrPmbD5YyF9d5csQY0-2" source="SSHrPmbD5YyF9d5csQY0-42" target="SSHrPmbD5YyF9d5csQY0-26">
          <mxGeometry relative="1" as="geometry" />
        </mxCell>
        <mxCell id="SSHrPmbD5YyF9d5csQY0-49" style="edgeStyle=orthogonalEdgeStyle;rounded=0;orthogonalLoop=1;jettySize=auto;html=1;entryX=0;entryY=0.75;entryDx=0;entryDy=0;entryPerimeter=0;" edge="1" parent="SSHrPmbD5YyF9d5csQY0-2" source="SSHrPmbD5YyF9d5csQY0-42" target="SSHrPmbD5YyF9d5csQY0-28">
          <mxGeometry relative="1" as="geometry" />
        </mxCell>
        <mxCell id="SSHrPmbD5YyF9d5csQY0-50" style="edgeStyle=orthogonalEdgeStyle;rounded=0;orthogonalLoop=1;jettySize=auto;html=1;entryX=0;entryY=0.75;entryDx=0;entryDy=0;entryPerimeter=0;" edge="1" parent="SSHrPmbD5YyF9d5csQY0-2" source="SSHrPmbD5YyF9d5csQY0-26" target="SSHrPmbD5YyF9d5csQY0-43">
          <mxGeometry relative="1" as="geometry" />
        </mxCell>
        <mxCell id="SSHrPmbD5YyF9d5csQY0-52" style="edgeStyle=orthogonalEdgeStyle;rounded=0;orthogonalLoop=1;jettySize=auto;html=1;entryX=0;entryY=0.75;entryDx=0;entryDy=0;entryPerimeter=0;" edge="1" parent="SSHrPmbD5YyF9d5csQY0-2" source="SSHrPmbD5YyF9d5csQY0-28" target="SSHrPmbD5YyF9d5csQY0-43">
          <mxGeometry relative="1" as="geometry" />
        </mxCell>
        <mxCell id="SSHrPmbD5YyF9d5csQY0-53" style="edgeStyle=orthogonalEdgeStyle;rounded=0;orthogonalLoop=1;jettySize=auto;html=1;entryX=0;entryY=0.5;entryDx=0;entryDy=0;entryPerimeter=0;" edge="1" parent="SSHrPmbD5YyF9d5csQY0-2" source="SSHrPmbD5YyF9d5csQY0-43" target="SSHrPmbD5YyF9d5csQY0-27">
          <mxGeometry relative="1" as="geometry" />
        </mxCell>
        <mxCell id="SSHrPmbD5YyF9d5csQY0-54" style="edgeStyle=orthogonalEdgeStyle;rounded=0;orthogonalLoop=1;jettySize=auto;html=1;entryX=0;entryY=0.75;entryDx=0;entryDy=0;entryPerimeter=0;" edge="1" parent="SSHrPmbD5YyF9d5csQY0-2" source="SSHrPmbD5YyF9d5csQY0-43" target="SSHrPmbD5YyF9d5csQY0-29">
          <mxGeometry relative="1" as="geometry" />
        </mxCell>
        <mxCell id="SSHrPmbD5YyF9d5csQY0-55" style="edgeStyle=orthogonalEdgeStyle;rounded=0;orthogonalLoop=1;jettySize=auto;html=1;" edge="1" parent="SSHrPmbD5YyF9d5csQY0-2" source="SSHrPmbD5YyF9d5csQY0-29" target="SSHrPmbD5YyF9d5csQY0-33">
          <mxGeometry relative="1" as="geometry" />
        </mxCell>
        <mxCell id="SSHrPmbD5YyF9d5csQY0-56" style="edgeStyle=orthogonalEdgeStyle;rounded=0;orthogonalLoop=1;jettySize=auto;html=1;" edge="1" parent="SSHrPmbD5YyF9d5csQY0-2" source="SSHrPmbD5YyF9d5csQY0-27" target="SSHrPmbD5YyF9d5csQY0-32">
          <mxGeometry relative="1" as="geometry" />
        </mxCell>
        <mxCell id="SSHrPmbD5YyF9d5csQY0-3" value="Route53&lt;br&gt;&lt;br&gt;&amp;nbsp; &amp;nbsp; &amp;nbsp; &amp;nbsp; care.healthcare-hwp.com" style="sketch=0;points=[[0,0,0],[0.25,0,0],[0.5,0,0],[0.75,0,0],[1,0,0],[0,1,0],[0.25,1,0],[0.5,1,0],[0.75,1,0],[1,1,0],[0,0.25,0],[0,0.5,0],[0,0.75,0],[1,0.25,0],[1,0.5,0],[1,0.75,0]];outlineConnect=0;fontColor=#232F3E;fillColor=#8C4FFF;strokeColor=#ffffff;dashed=0;verticalLabelPosition=bottom;verticalAlign=top;align=center;html=1;fontSize=12;fontStyle=0;aspect=fixed;shape=mxgraph.aws4.resourceIcon;resIcon=mxgraph.aws4.route_53;" vertex="1" parent="SSHrPmbD5YyF9d5csQY0-1">
          <mxGeometry x="40" y="332" width="38" height="38" as="geometry" />
        </mxCell>
        <mxCell id="SSHrPmbD5YyF9d5csQY0-12" style="edgeStyle=orthogonalEdgeStyle;rounded=0;orthogonalLoop=1;jettySize=auto;html=1;exitX=0.5;exitY=1;exitDx=0;exitDy=0;" edge="1" parent="SSHrPmbD5YyF9d5csQY0-1" source="SSHrPmbD5YyF9d5csQY0-2" target="SSHrPmbD5YyF9d5csQY0-2">
          <mxGeometry relative="1" as="geometry" />
        </mxCell>
        <mxCell id="SSHrPmbD5YyF9d5csQY0-47" style="edgeStyle=orthogonalEdgeStyle;rounded=0;orthogonalLoop=1;jettySize=auto;html=1;" edge="1" parent="SSHrPmbD5YyF9d5csQY0-1" source="SSHrPmbD5YyF9d5csQY0-7" target="SSHrPmbD5YyF9d5csQY0-42">
          <mxGeometry relative="1" as="geometry" />
        </mxCell>
        <mxCell id="SSHrPmbD5YyF9d5csQY0-7" value="Internet Gateway" style="sketch=0;outlineConnect=0;fontColor=#232F3E;gradientColor=none;fillColor=#8C4FFF;strokeColor=none;dashed=0;verticalLabelPosition=bottom;verticalAlign=top;align=center;html=1;fontSize=12;fontStyle=0;aspect=fixed;pointerEvents=1;shape=mxgraph.aws4.internet_gateway;" vertex="1" parent="SSHrPmbD5YyF9d5csQY0-1">
          <mxGeometry x="125" y="331" width="48" height="48" as="geometry" />
        </mxCell>
        <mxCell id="SSHrPmbD5YyF9d5csQY0-46" value="" style="edgeStyle=orthogonalEdgeStyle;html=1;endArrow=block;elbow=vertical;startArrow=none;endFill=1;strokeColor=#545B64;rounded=0;" edge="1" parent="SSHrPmbD5YyF9d5csQY0-1">
          <mxGeometry width="100" relative="1" as="geometry">
            <mxPoint x="82" y="352" as="sourcePoint" />
            <mxPoint x="125" y="352" as="targetPoint" />
          </mxGeometry>
        </mxCell>
        <mxCell id="SSHrPmbD5YyF9d5csQY0-57" value="ACM&lt;br&gt;(SSL for https)" style="sketch=0;points=[[0,0,0],[0.25,0,0],[0.5,0,0],[0.75,0,0],[1,0,0],[0,1,0],[0.25,1,0],[0.5,1,0],[0.75,1,0],[1,1,0],[0,0.25,0],[0,0.5,0],[0,0.75,0],[1,0.25,0],[1,0.5,0],[1,0.75,0]];outlineConnect=0;fontColor=#232F3E;fillColor=#DD344C;strokeColor=#ffffff;dashed=0;verticalLabelPosition=bottom;verticalAlign=top;align=center;html=1;fontSize=12;fontStyle=0;aspect=fixed;shape=mxgraph.aws4.resourceIcon;resIcon=mxgraph.aws4.certificate_manager_3;" vertex="1" parent="SSHrPmbD5YyF9d5csQY0-1">
          <mxGeometry x="40" y="240" width="38" height="38" as="geometry" />
        </mxCell>
        <mxCell id="SSHrPmbD5YyF9d5csQY0-4" value="User" style="sketch=0;outlineConnect=0;fontColor=#232F3E;gradientColor=none;fillColor=#232F3D;strokeColor=none;dashed=0;verticalLabelPosition=bottom;verticalAlign=top;align=center;html=1;fontSize=12;fontStyle=0;aspect=fixed;pointerEvents=1;shape=mxgraph.aws4.user;" vertex="1" parent="1">
          <mxGeometry x="10" y="-479" width="40" height="40" as="geometry" />
        </mxCell>
        <mxCell id="SSHrPmbD5YyF9d5csQY0-6" value="" style="edgeStyle=orthogonalEdgeStyle;html=1;endArrow=block;elbow=vertical;startArrow=none;endFill=1;strokeColor=#545B64;rounded=0;entryX=0;entryY=0.5;entryDx=0;entryDy=0;entryPerimeter=0;" edge="1" parent="1" source="SSHrPmbD5YyF9d5csQY0-4" target="SSHrPmbD5YyF9d5csQY0-3">
          <mxGeometry width="100" relative="1" as="geometry">
            <mxPoint x="50" y="-479.5" as="sourcePoint" />
            <mxPoint x="90" y="-479" as="targetPoint" />
          </mxGeometry>
        </mxCell>
      </root>
    </mxGraphModel>
  </diagram>
</mxfile>
